<svg width="20" height="20" viewBox="0 0 20 20" fill="none" xmlns="http://www.w3.org/2000/svg">
<path fill-rule="evenodd" clip-rule="evenodd" d="M10 20C1.765 20 0 18.235 0 10C0 1.765 1.765 0 10 0C18.235 0 20 1.765 20 10C20 18.235 18.235 20 10 20ZM12.3932 12.9992C12.9177 12.6835 13.4613 12.3563 13.8591 12.0269C14.2997 11.6619 14.9113 11.0117 14.9113 10C14.9113 8.98825 14.2997 8.33808 13.8591 7.97312C13.4613 7.64368 12.9177 7.31652 12.3932 7.00084L10.8787 6.08847C10.3558 5.77327 9.8115 5.44506 9.33642 5.24928C8.82008 5.03647 7.91193 4.77944 7.00002 5.32876C6.11465 5.86209 5.89412 6.75913 5.81734 7.29873C5.74423 7.81251 5.74442 8.45683 5.74461 9.09275V10.9073C5.74442 11.5432 5.74423 12.1875 5.81734 12.7013C5.89412 13.2408 6.11465 14.1379 7.00002 14.6712C7.91193 15.2206 8.82008 14.9635 9.33642 14.7507C9.8115 14.5549 10.3558 14.2267 10.8787 13.9115L12.3932 12.9992Z" fill="#6776FF"/>
</svg>
